<?xml version="1.0" encoding="UTF-8"?>
<svg xmlns="http://www.w3.org/2000/svg" xmlns:xlink="http://www.w3.org/1999/xlink" viewBox="0 0 96 96" width="96px" height="96px">
<g id="surface49509347">
<path style=" stroke:none;fill-rule:nonzero;fill:rgb(37.254903%,38.82353%,94.901961%);fill-opacity:1;" d="M 48 8 C 26 8 8 26 8 48 C 8 70 26 88 48 88 C 70 88 88 70 88 48 C 88 26 70 8 48 8 Z M 48 8 "/>
<path style=" stroke:none;fill-rule:nonzero;fill:rgb(100%,100%,100%);fill-opacity:1;" d="M 28 38 L 36 38 L 36 68 L 28 68 Z M 28 38 "/>
<path style=" stroke:none;fill-rule:nonzero;fill:rgb(100%,100%,100%);fill-opacity:1;" d="M 32 34 C 29.601562 34 28 32.199219 28 30 C 28 27.800781 29.601562 26 32 26 C 34.398438 26 36 27.800781 36 30 C 36 32.199219 34.398438 34 32 34 Z M 32 34 "/>
<path style=" stroke:none;fill-rule:nonzero;fill:rgb(100%,100%,100%);fill-opacity:1;" d="M 70 49 C 70 43 65 38 59 38 C 55.199219 38 52 39.800781 50 42.601562 L 50 38 L 42 38 L 42 68 L 50 68 L 50 52 C 50 48.601562 52.601562 46 56 46 C 59.398438 46 62 48.601562 62 52 L 62 68 L 70 68 C 70 68 70 49.800781 70 49 Z M 70 49 "/>
</g>
</svg>
