<svg width="19" height="18" viewBox="0 0 19 18" fill="none" xmlns="http://www.w3.org/2000/svg">
<path d="M13.474 3.40801L15.592 5.52501L13.474 3.40801ZM14.836 1.54301L9.109 7.27001C8.81309 7.56551 8.61128 7.94199 8.529 8.35201L8 11L10.648 10.47C11.058 10.388 11.434 10.187 11.73 9.89101L17.457 4.16401C17.6291 3.99191 17.7656 3.7876 17.8588 3.56275C17.9519 3.33789 17.9998 3.09689 17.9998 2.85351C17.9998 2.61013 17.9519 2.36913 17.8588 2.14427C17.7656 1.91942 17.6291 1.71511 17.457 1.54301C17.2849 1.37091 17.0806 1.2344 16.8557 1.14126C16.6309 1.04812 16.3899 1.00018 16.1465 1.00018C15.9031 1.00018 15.6621 1.04812 15.4373 1.14126C15.2124 1.2344 15.0081 1.37091 14.836 1.54301V1.54301Z" stroke="black" stroke-width="2" stroke-linecap="round" stroke-linejoin="round"/>
<path d="M16 12V15C16 15.5304 15.7893 16.0391 15.4142 16.4142C15.0391 16.7893 14.5304 17 14 17H3C2.46957 17 1.96086 16.7893 1.58579 16.4142C1.21071 16.0391 1 15.5304 1 15V4C1 3.46957 1.21071 2.96086 1.58579 2.58579C1.96086 2.21071 2.46957 2 3 2H6" stroke="black" stroke-width="2" stroke-linecap="round" stroke-linejoin="round"/>
</svg>
